Coordinates
version=1
nRows=17
nColumns=33
inDegrees=yes

Units are S.I. units (second, meters, Newtons, ...)
Angles are in degrees.

endheader
time	ground_thorax_rot_x	ground_thorax_rot_y	ground_thorax_rot_z	ground_thorax_tx	ground_thorax_ty	ground_thorax_tz	clav_prot_r	clav_elev_r	scapula_abduction_r	scapula_elevation_r	scapula_upward_rot_r	scapula_winging_r	shoulder_elv_r	plane_of_elev_r	axial_rot_r	elbow_flexion_r	pro_sup_r	wrist_flex_r	wrist_dev_r	clav_prot_l	clav_elev_l	scapula_abduction_l	scapula_elevation_l	scapula_upward_rot_l	scapula_winging_l	shoulder_elv_l	plane_of_elev_l	axial_rot_l	elbow_flexion_l	pro_sup_l	wrist_flex_l	wrist_dev_l
      5.09000000	     34.76376655	     23.34963135	     28.24708067	   -211.49954570	    819.43645066	      5.86833710	     11.79415548	     38.21940627	     37.08513718	     45.00000000	    -36.18946405	   2429.86080145	  -1013.05181602	     33.22870290	     55.65096946	   1102.99324139	    131.73067819	     11.06055599	      2.35430596	      8.79407554	    -45.00000000	    -36.83990238	     45.00000000	    -45.00000000	  -2060.47588239	    268.54369820	    137.66332904	    151.63141371	    739.33185943	     95.03735283	     -2.81405014	    -14.82947788
      5.10000000	     34.64011381	     23.64552263	     28.74213734	   -208.13608182	    818.43148127	      5.77200931	     12.17372055	     38.38985647	     37.25331620	     45.00000000	    -36.22011771	   2429.83844061	  -1013.26987672	     33.33249400	     55.73579750	   1102.99826302	    131.26727076	     11.23726010	      2.21207278	      8.52899300	    -45.00000000	    -36.74566867	     45.00000000	    -45.00000000	  -2060.76161055	    268.46086576	    137.78852956	    151.95292308	    739.32472546	     94.27543784	     -2.80070134	    -15.04222659
      5.11000000	     34.45202283	     24.13115138	     29.31972703	   -204.66992519	    817.35465764	      5.67065600	     12.11756281	     38.36295694	     37.16886340	     45.00000000	    -36.16922541	   2429.96662112	  -1013.38171162	     33.33183791	     55.54871119	   1102.87448110	    130.65853479	     11.47964158	      2.08622271	      8.59964230	    -45.00000000	    -36.76497084	     45.00000000	    -45.00000000	  -2060.91659562	    268.33785922	    137.71958442	    152.04508703	    739.14980922	     93.24746854	     -2.72434207	    -15.32095311
      5.12000000	     34.30475361	     24.52079612	     29.91268331	   -201.10134720	    816.20863922	      5.56385117	     12.63015384	     38.53984179	     37.44388369	     45.00000000	    -36.23294914	   2429.99190800	  -1013.53378365	     33.14429309	     55.45374468	   1102.87679776	    129.61080746	     11.65438076	      1.95747831	      8.15053646	    -45.00000000	    -36.72871486	     45.00000000	    -45.00000000	  -2061.24979479	    268.14385213	    137.91165565	    152.28572496	    739.04818840	     91.67253853	     -2.65724255	    -15.69411478
      5.13000000	     34.08998288	     24.92536818	     30.46149331	   -197.42978445	    814.99856512	      5.45117798	     12.31045310	     38.44694092	     37.28681572	     45.00000000	    -36.22683204	   2430.07792252	  -1013.70649483	     33.34915840	     55.35115378	   1102.73555851	    128.45319979	     11.97446583	      1.83020847	      8.48680930	    -45.00000000	    -36.77895251	     45.00000000	    -45.00000000	  -2061.29249639	    268.00809406	    137.75991930	    152.20093825	    738.89080558	     89.90696579	     -2.52350933	    -16.02507122
      5.14000000	     33.95380571	     25.26802858	     31.04069824	   -193.66112028	    813.72975195	      5.33379368	     12.95682139	     38.68440518	     37.51839756	     45.00000000	    -36.16520261	   2430.20074514	  -1013.86550286	     33.12865981	     55.12622815	   1102.62803605	    126.57561846	     12.26209692	      1.68994666	      7.88435186	    -45.00000000	    -36.58357309	     45.00000000	    -45.00000000	  -2061.67346375	    267.87412735	    137.89520572	    152.61814311	    738.55153725	     87.23742127	     -2.32278891	    -16.51737605
      5.15000000	     33.94466656	     25.47767319	     31.20962689	   -189.79812513	    812.40542478	      5.21560855	     12.77154708	     38.93368953	     37.39361878	     45.00000000	    -34.74116343	   2430.24022601	  -1014.30981978	     32.62125008	     52.73538912	   1092.00063390	      3.51736922	     18.56614235	      9.28883931	      7.76608151	    -45.00000000	    -36.59523885	     45.00000000	    -45.00000000	  -2062.01060879	    267.11698424	    138.27002880	    151.79553176	    731.48113551	     14.60536933	      6.03530031	    -19.78722822
      5.16000000	     33.45242788	     26.16782772	     32.32727024	   -185.83952258	    811.03229667	      5.09647247	     12.71256431	     38.62821036	     37.33370583	     45.00000000	    -36.16963467	   2430.45539859	  -1014.26266023	     32.99941846	     52.00001081	   1091.98673413	      3.54426638	     18.38752127	      9.28146748	      8.14606803	    -45.00000000	    -36.72065888	     45.00000000	    -45.00000000	  -2061.98248112	    266.81917642	    138.41359727	    151.06384176	    731.46880000	     15.08369576	      5.81847589	    -20.05665590
      5.17000000	     33.09988664	     26.63901069	     33.09905637	   -181.80001288	    809.61218622	      4.98517166	     12.40862968	     38.46595945	     37.05286756	     45.00000000	    -36.36804109	   2430.68282055	  -1014.42324096	     33.12048242	     51.95272591	   1091.87960714	      3.69831396	     18.26671725	      9.51963322	      8.44499540	    -45.00000000	    -36.76670365	     45.00000000	    -45.00000000	  -2061.99907022	    266.62519869	    138.34386106	    150.60788376	    731.37527699	     15.47219532	      5.96785184	    -20.01782863
      5.18000000	     32.75507891	     27.08280341	     33.92201829	   -177.73508722	    808.13017975	      4.89944358	     12.40938393	     38.39885679	     36.96124883	     45.00000000	    -36.51199652	   2430.90518574	  -1014.54021452	     33.04824913	     52.00232827	   1091.79292077	      3.73607561	     18.21517508	      9.70636947	      8.44711628	    -45.00000000	    -36.80391787	     45.00000000	    -45.00000000	  -2062.10079232	    266.35180404	    138.44284300	    150.20547225	    731.35983036	     15.83445938	      6.16202258	    -19.97867145
      5.19000000	     32.50135639	     27.47369495	     34.60465702	   -173.55674848	    806.61281004	      4.82397005	     12.74747367	     38.48656275	     36.98337429	     45.00000000	    -36.74645448	   2430.98724707	  -1014.80524156	     33.00730463	     52.20361219	   1091.71020486	      3.80521172	     18.14620971	      9.89614806	      8.18626944	    -45.00000000	    -36.69409177	     45.00000000	    -45.00000000	  -2062.38187748	    266.10821621	    138.60786509	    149.84888460	    731.38235194	     16.19934105	      6.29952214	    -19.94512981
      5.20000000	     32.06013435	     27.92818509	     35.68008712	   -169.64478759	    804.93861293	      4.85845447	     12.58544975	     38.10540761	     36.86767026	     45.00000000	    -37.26424696	   2431.58248418	  -1014.71602028	     32.54889317	     52.03748822	   1091.49216027	      3.14936962	     18.28374922	     10.03088627	      8.29076654	    -45.00000000	    -36.87982943	     45.00000000	    -45.00000000	  -2062.17769802	    265.71937350	    138.59854284	    149.14814269	    731.29970950	     16.58570829	      6.70172151	    -19.88073924
      5.21000000	     31.89105028	     28.24570185	     36.16237215	   -165.30752076	    803.37098633	      4.79835969	     12.89149970	     38.43611815	     36.92649417	     45.00000000	    -37.24021054	   2431.28650737	  -1015.26237783	     32.77708855	     52.85476305	   1091.33752735	      2.74916593	     18.12071009	     10.25810670	      8.14276889	    -45.00000000	    -36.59900393	     45.00000000	    -45.00000000	  -2062.70475101	    265.53643478	    138.82713548	    148.90562612	    731.32676148	     16.94739336	      6.65765032	    -19.84652587
      5.22000000	     31.36328797	     28.64752523	     37.32525029	   -161.29548939	    801.64734677	      4.84495027	     12.84965542	     38.15271163	     36.71376962	     45.00000000	    -37.76147290	   2431.83225368	  -1015.25033667	     32.45345349	     52.81288146	   1091.15232928	      1.78867185	     18.20632669	     10.47333063	      8.18180318	    -45.00000000	    -36.65191492	     45.00000000	    -45.00000000	  -2062.49800359	    265.15934041	    138.87707547	    148.11189970	    731.23073395	     17.37747708	      6.97802021	    -19.77138938
      5.23000000	     31.13076814	     29.01659033	     37.91471430	   -156.82209584	    800.05972308	      4.76712794	     13.10636320	     38.44044710	     36.71213478	     45.00000000	    -37.72097491	   2431.70440069	  -1015.76747456	     32.49760573	     53.83138673	   1091.00022166	      1.30259819	     17.98768420	     10.69694947	      7.94291097	    -45.00000000	    -36.53607405	     45.00000000	    -45.00000000	  -2063.02329010	    264.88340506	    139.25912982	    147.69637308	    731.23735859	     17.82296380	      6.96410124	    -19.72901409
      5.24000000	     30.38340503	     29.63679623	     39.31042373	   -152.60854011	    798.34682338	      4.77538527	     12.51437638	     37.99686907	     36.23803841	     45.00000000	    -38.05000624	   2432.45019088	  -1015.61147901	     31.95997123	     53.94481327	   1090.87859054	      0.72594592	     17.95162501	     10.96159120	      8.50036679	    -45.00000000	    -36.80725204	     45.00000000	    -45.00000000	  -2062.60157529	    264.50901200	    139.23363018	    146.60254582	    731.12160844	     18.30749579	      7.36543274	    -19.64762658
      5.25000000	     30.28085125	     29.90250164	     39.75527486	   -147.88786293	    796.80591839	      4.64922134	     13.31379418	     38.39099873	     36.48668873	     45.00000000	    -38.19786145	   2432.11940201	  -1016.22373242	     32.27647949	     54.72977355	   1090.78917108	      1.17575425	     17.63390881	     11.11271880	      7.79754173	    -45.00000000	    -36.41928340	     45.00000000	    -45.00000000	  -2063.27383846	    264.16383353	    139.75193027	    146.21669407	    731.16953114	     18.83092687	      7.27474533	    -19.62539734
